# xmcd
#
# Track frame offsets:
#	150
#	14594
#	25304
#	34342
#	49928
#	62366
#	72129
#	82310
#	93215
#	103117
#	112378
#	122921
#	132182
#	141332
#	152711
#	162975
#	176053
#	186234
#	195467
#	206734
#	219172
#	229380
#	240591
#	252750
#	261649
#	270520
#	280840
#	290965
#	301508
#	313472
#	323123
#	336954
#
# Disc length: 4655 seconds
#
# Revision: 0
# Processed by: cddbd v1.5.2PL0 Copyright (c) Steve Scherf et al.
# Submitted via: audiograbber 1.83.01
#
DISCID=f4122d20
DTITLE=The Browns - The Three Bells [BCD 15665- HI]
DYEAR=1960
DGENRE=Country
TTITLE0=Lonely Little Robin
TTITLE1=The Wayward Wind
TTITLE2=The Old Village Choir
TTITLE3=High Noon
TTITLE4=Lavender Blue
TTITLE5=Blues In My Heart
TTITLE6=Chandelier Of Stars
TTITLE7=The Whiffenpoof Song
TTITLE8=Blue Christmas
TTITLE9=This Land Is Your Land
TTITLE10=In The Pines
TTITLE11=Brighten The Corner Where You Are
TTITLE12=Greenwillow Christmas
TTITLE13=Remember Me
TTITLE14=The Twelfth Of Never
TTITLE15=Nevada
TTITLE16=Where I Was (When We Became Strangers)
TTITLE17=You're So Much A Part Of Me
TTITLE18=Revenge
TTITLE19=The Bandit
TTITLE20=Send Me The Pillow You Dream On
TTITLE21=Down In The Valley
TTITLE22=Shenandoah
TTITLE23=Columbus Stockade Blues
TTITLE24=Clementine
TTITLE25=Poor Wayfaring Stranger
TTITLE26=Ground Hog
TTITLE27=Poor Wildwood Flower
TTITLE28=Who's Gonna Shoe Your Pretty Little Feet
TTITLE29=John B. Sails
TTITLE30=My Pretty Quadroon
TTITLE31=Down On The Old Plantation
EXTD=
EXTT0=
EXTT1=
EXTT2=
EXTT3=
EXTT4=
EXTT5=
EXTT6=
EXTT7=
EXTT8=
EXTT9=
EXTT10=
EXTT11=
EXTT12=
EXTT13=
EXTT14=
EXTT15=
EXTT16=
EXTT17=
EXTT18=
EXTT19=
EXTT20=
EXTT21=
EXTT22=
EXTT23=
EXTT24=
EXTT25=
EXTT26=
EXTT27=
EXTT28=
EXTT29=
EXTT30=
EXTT31=
PLAYORDER=
